<svg width="63" height="60" viewBox="0 0 63 60" fill="none" xmlns="http://www.w3.org/2000/svg">
<path d="M36.9141 33.8738C34.8712 35.6255 32.5433 36.9511 29.9303 37.8506C27.3174 38.7028 24.5856 39.1289 21.7351 39.1289C18.9321 39.1289 16.2241 38.7028 13.6112 37.8506C10.9982 36.9511 8.67029 35.6729 6.62743 34.0159C4.63207 32.3115 3.01679 30.2521 1.78157 27.8376C0.593856 25.3758 0 22.5826 0 19.4579C0 16.3333 0.61761 13.5637 1.85283 11.1493C3.08805 8.73477 4.72709 6.69902 6.76995 5.04202C8.81282 3.38502 11.1407 2.13043 13.7537 1.27826C16.3667 0.426088 19.0509 0 21.8064 0C24.5144 0 27.1511 0.402416 29.7165 1.20725C32.282 1.96473 34.5862 3.10096 36.629 4.61593L31.7119 10.2971C30.3341 9.35022 28.7664 8.64008 27.0086 8.16665C25.2982 7.64588 23.5642 7.38549 21.8064 7.38549C20.0011 7.38549 18.267 7.64588 16.6042 8.16665C14.9414 8.64008 13.4449 9.37389 12.1147 10.3681C10.7844 11.3623 9.71548 12.6406 8.90783 14.2029C8.1477 15.7178 7.76763 17.5169 7.76763 19.6C7.76763 21.683 8.17145 23.4821 8.9791 24.9971C9.78674 26.512 10.8557 27.7666 12.1859 28.7608C13.5162 29.755 15.0127 30.5125 16.6755 31.0333C18.3858 31.5067 20.1198 31.7434 21.8776 31.7434C23.873 31.7434 25.7971 31.412 27.6499 30.7492C29.5503 30.0391 31.213 29.0449 32.6383 27.7666L36.9141 33.8738Z" fill="#B910A3"/>
<path d="M38.3484 21.4681V42.4488H45.3049C48.6818 42.4488 51.2933 41.5268 53.1394 39.6829C54.9854 37.8389 55.9085 35.2304 55.9085 31.8573C55.9085 28.4392 54.9854 25.8531 53.1394 24.0991C51.2933 22.3451 48.6818 21.4681 45.3049 21.4681H38.3484ZM23.625 14.5195H45.3049C47.9164 14.5195 50.3027 14.9018 52.464 15.6664C54.6702 16.386 56.5388 17.4879 58.0697 18.972C59.6456 20.4112 60.8613 22.2102 61.7168 24.369C62.5723 26.4828 63 28.9339 63 31.7223C63 34.4208 62.5723 36.8719 61.7168 39.0757C60.9063 41.2795 59.7131 43.1459 58.1372 44.675C56.6063 46.2042 54.7378 47.396 52.5315 48.2505C50.3703 49.0601 47.9614 49.4648 45.3049 49.4648H31.0542V21.4681H26.7318L23.625 14.5195Z" fill="#B910A3"/>
<path d="M10.0276 58.135C10.0276 58.4204 9.95949 58.6803 9.82333 58.9146C9.6924 59.1439 9.50911 59.3401 9.27344 59.5032C9.04301 59.6611 8.76806 59.7834 8.4486 59.8701C8.12914 59.9567 7.7835 60 7.41167 60C7.18647 60 6.96128 59.972 6.73609 59.9159C6.51613 59.865 6.30141 59.7911 6.09193 59.6943C5.88244 59.5924 5.68344 59.4701 5.4949 59.3274C5.3116 59.1796 5.14664 59.014 5 58.8306L5.61274 58.2726C5.69129 58.3643 5.78556 58.4637 5.89554 58.5707C6.00552 58.6726 6.13382 58.7694 6.28046 58.8611C6.43234 58.9478 6.59992 59.0217 6.78322 59.0828C6.97175 59.1389 7.18124 59.1669 7.41167 59.1669C7.62638 59.1669 7.83849 59.1465 8.04797 59.1057C8.25745 59.065 8.44337 59.0038 8.60571 58.9223C8.76806 58.8357 8.89899 58.7287 8.99849 58.6013C9.098 58.4688 9.14775 58.3134 9.14775 58.135C9.14775 57.9159 9.09538 57.7478 8.99064 57.6306C8.89113 57.5134 8.76021 57.4293 8.59786 57.3783C8.43551 57.3223 8.24959 57.2892 8.04011 57.279C7.83063 57.2688 7.62115 57.2637 7.41167 57.2637C6.70466 57.2637 6.16786 57.1414 5.80127 56.8968C5.43468 56.6522 5.25138 56.2828 5.25138 55.7885C5.25138 55.5592 5.30375 55.3376 5.40849 55.1236C5.51847 54.9045 5.66772 54.7134 5.85626 54.5503C6.05003 54.3822 6.27784 54.2497 6.5397 54.1529C6.80679 54.051 7.09744 54 7.41167 54C7.85682 54 8.27316 54.0662 8.6607 54.1987C9.04825 54.3312 9.41746 54.5656 9.76834 54.9019L9.23416 55.5134C9.07705 55.3911 8.92779 55.2866 8.78639 55.2C8.65023 55.1134 8.51145 55.0446 8.37005 54.9936C8.22865 54.9376 8.07939 54.8994 7.92228 54.879C7.7704 54.8535 7.6002 54.8408 7.41167 54.8408C7.24408 54.8408 7.08697 54.8662 6.94033 54.9172C6.79369 54.9682 6.66538 55.0369 6.55541 55.1236C6.44543 55.2102 6.35902 55.3121 6.29617 55.4293C6.23333 55.5414 6.2019 55.6586 6.2019 55.7809C6.2019 55.8675 6.22023 55.9516 6.25689 56.0331C6.29355 56.1096 6.35902 56.1783 6.45328 56.2395C6.54755 56.3006 6.67324 56.349 6.83035 56.3847C6.9927 56.4204 7.19956 56.4382 7.45094 56.4382C7.96418 56.4382 8.38576 56.4764 8.71569 56.5529C9.05086 56.6293 9.31534 56.7414 9.50911 56.8892C9.70288 57.0318 9.83642 57.2102 9.90974 57.4242C9.9883 57.6331 10.0276 57.8701 10.0276 58.135Z" fill="#B910A3"/>
<path d="M16.3532 56.9809C16.3532 56.6701 16.2903 56.3847 16.1646 56.1248C16.0442 55.8599 15.8766 55.6331 15.6619 55.4446C15.4524 55.251 15.2089 55.1032 14.9313 55.0013C14.6537 54.8943 14.3578 54.8408 14.0436 54.8408C13.7189 54.8408 13.4152 54.8943 13.1324 55.0013C12.8496 55.1083 12.6034 55.2611 12.3939 55.4599C12.1897 55.6535 12.0274 55.8854 11.9069 56.1554C11.7917 56.4204 11.7341 56.7134 11.7341 57.0344C11.7341 57.3401 11.7969 57.6255 11.9226 57.8904C12.0483 58.1503 12.2185 58.3745 12.4332 58.5631C12.6479 58.7516 12.8941 58.8994 13.1717 59.0064C13.4492 59.1134 13.7425 59.1669 14.0515 59.1669C14.3657 59.1669 14.6616 59.1108 14.9392 58.9987C15.222 58.8866 15.4655 58.7338 15.6697 58.5401C15.8792 58.3414 16.0442 58.1096 16.1646 57.8446C16.2903 57.5796 16.3532 57.2917 16.3532 56.9809ZM17.2016 57.0268C17.2016 57.4497 17.1152 57.842 16.9423 58.2038C16.7747 58.5656 16.5469 58.879 16.2589 59.1439C15.9709 59.4089 15.6357 59.6178 15.2534 59.7707C14.8711 59.9236 14.4678 60 14.0436 60C13.5985 60 13.1847 59.921 12.8024 59.7631C12.4201 59.6051 12.0876 59.3885 11.8048 59.1134C11.522 58.8382 11.2994 58.5146 11.1371 58.1427C10.9747 57.7656 10.8935 57.3631 10.8935 56.935C10.8935 56.5172 10.9773 56.1299 11.1449 55.7732C11.3177 55.4115 11.5482 55.1006 11.8362 54.8408C12.1295 54.5758 12.4673 54.3694 12.8496 54.2217C13.2319 54.0739 13.6325 54 14.0515 54C14.4862 54 14.8946 54.079 15.2769 54.2369C15.6593 54.3898 15.9918 54.6038 16.2746 54.879C16.5626 55.149 16.7878 55.4675 16.9502 55.8344C17.1178 56.2013 17.2016 56.5987 17.2016 57.0268Z" fill="#B910A3"/>
<path d="M18.5359 59.8701V54.1682H19.3921V59.0369H22.6443V59.8701H18.5359Z" fill="#B910A3"/>
<path d="M26.2211 60C25.3832 60 24.7338 59.7962 24.2729 59.3885C23.8173 58.9809 23.5895 58.4025 23.5895 57.6535V54.1682H24.4379V57.6535C24.4379 58.1478 24.5924 58.5248 24.9014 58.7847C25.2104 59.0395 25.6503 59.1669 26.2211 59.1669C26.792 59.1669 27.2319 59.0395 27.5409 58.7847C27.8499 58.5248 28.0044 58.1478 28.0044 57.6535V54.1682H28.8528V57.6535C28.8528 58.4025 28.6223 58.9809 28.1615 59.3885C27.7058 59.7962 27.0591 60 26.2211 60Z" fill="#B910A3"/>
<path d="M32.6514 55.0089V59.8701H31.8187V55.0089H29.7291V54.1682H34.7174V55.0089H32.6514Z" fill="#B910A3"/>
<path d="M35.8197 59.8701V54.1682H36.6602V59.8701H35.8197Z" fill="#B910A3"/>
<path d="M43.4565 56.9809C43.4565 56.6701 43.3936 56.3847 43.2679 56.1248C43.1475 55.8599 42.9799 55.6331 42.7652 55.4446C42.5557 55.251 42.3122 55.1032 42.0346 55.0013C41.7571 54.8943 41.4612 54.8408 41.1469 54.8408C40.8222 54.8408 40.5185 54.8943 40.2357 55.0013C39.9529 55.1083 39.7067 55.2611 39.4973 55.4599C39.293 55.6535 39.1307 55.8854 39.0102 56.1554C38.895 56.4204 38.8374 56.7134 38.8374 57.0344C38.8374 57.3401 38.9002 57.6255 39.0259 57.8904C39.1516 58.1503 39.3218 58.3745 39.5365 58.5631C39.7513 58.7516 39.9974 58.8994 40.275 59.0064C40.5525 59.1134 40.8458 59.1669 41.1548 59.1669C41.469 59.1669 41.7649 59.1108 42.0425 58.9987C42.3253 58.8866 42.5688 58.7338 42.773 58.5401C42.9825 58.3414 43.1475 58.1096 43.2679 57.8446C43.3936 57.5796 43.4565 57.2917 43.4565 56.9809ZM44.3049 57.0268C44.3049 57.4497 44.2185 57.842 44.0456 58.2038C43.8781 58.5656 43.6502 58.879 43.3622 59.1439C43.0742 59.4089 42.739 59.6178 42.3567 59.7707C41.9744 59.9236 41.5711 60 41.1469 60C40.7018 60 40.2881 59.921 39.9058 59.7631C39.5234 59.6051 39.1909 59.3885 38.9081 59.1134C38.6253 58.8382 38.4027 58.5146 38.2404 58.1427C38.078 57.7656 37.9968 57.3631 37.9968 56.935C37.9968 56.5172 38.0806 56.1299 38.2482 55.7732C38.421 55.4115 38.6515 55.1006 38.9395 54.8408C39.2328 54.5758 39.5706 54.3694 39.9529 54.2217C40.3352 54.0739 40.7358 54 41.1548 54C41.5895 54 41.998 54.079 42.3803 54.2369C42.7626 54.3898 43.0951 54.6038 43.3779 54.879C43.666 55.149 43.8912 55.4675 44.0535 55.8344C44.2211 56.2013 44.3049 56.5987 44.3049 57.0268Z" fill="#B910A3"/>
<path d="M44.9828 54.1682H46.0904L49.8533 58.5248V54.1682H50.7174V59.8701H49.869L46.5068 55.949V59.8701H45.6662V54.9707L44.9828 54.1682Z" fill="#B910A3"/>
<path d="M57 58.135C57 58.4204 56.9319 58.6803 56.7958 58.9146C56.6648 59.1439 56.4815 59.3401 56.2459 59.5032C56.0154 59.6611 55.7405 59.7834 55.421 59.8701C55.1016 59.9567 54.7559 60 54.3841 60C54.1589 60 53.9337 59.972 53.7085 59.9159C53.4886 59.865 53.2738 59.7911 53.0644 59.6943C52.8549 59.5924 52.6559 59.4701 52.4673 59.3274C52.284 59.1796 52.1191 59.014 51.9724 58.8306L52.5852 58.2726C52.6637 58.3643 52.758 58.4637 52.868 58.5707C52.9779 58.6726 53.1063 58.7694 53.2529 58.8611C53.4048 58.9478 53.5723 59.0217 53.7556 59.0828C53.9442 59.1389 54.1537 59.1669 54.3841 59.1669C54.5988 59.1669 54.8109 59.1465 55.0204 59.1057C55.2299 59.065 55.4158 59.0038 55.5781 58.9223C55.7405 58.8357 55.8714 58.7287 55.9709 58.6013C56.0704 58.4688 56.1202 58.3134 56.1202 58.135C56.1202 57.9159 56.0678 57.7478 55.9631 57.6306C55.8636 57.5134 55.7326 57.4293 55.5703 57.3783C55.4079 57.3223 55.222 57.2892 55.0125 57.279C54.8031 57.2688 54.5936 57.2637 54.3841 57.2637C53.6771 57.2637 53.1403 57.1414 52.7737 56.8968C52.4071 56.6522 52.2238 56.2828 52.2238 55.7885C52.2238 55.5592 52.2762 55.3376 52.3809 55.1236C52.4909 54.9045 52.6401 54.7134 52.8287 54.5503C53.0225 54.3822 53.2503 54.2497 53.5121 54.1529C53.7792 54.051 54.0699 54 54.3841 54C54.8292 54 55.2456 54.0662 55.6331 54.1987C56.0207 54.3312 56.3899 54.5656 56.7408 54.9019L56.2066 55.5134C56.0495 55.3911 55.9002 55.2866 55.7588 55.2C55.6227 55.1134 55.4839 55.0446 55.3425 54.9936C55.2011 54.9376 55.0518 54.8994 54.8947 54.879C54.7428 54.8535 54.5726 54.8408 54.3841 54.8408C54.2165 54.8408 54.0594 54.8662 53.9128 54.9172C53.7661 54.9682 53.6378 55.0369 53.5278 55.1236C53.4179 55.2102 53.3314 55.3121 53.2686 55.4293C53.2057 55.5414 53.1743 55.6586 53.1743 55.7809C53.1743 55.8675 53.1927 55.9516 53.2293 56.0331C53.266 56.1096 53.3314 56.1783 53.4257 56.2395C53.52 56.3006 53.6457 56.349 53.8028 56.3847C53.9651 56.4204 54.172 56.4382 54.4234 56.4382C54.9366 56.4382 55.3582 56.4764 55.6881 56.5529C56.0233 56.6293 56.2878 56.7414 56.4815 56.8892C56.6753 57.0318 56.8088 57.2102 56.8822 57.4242C56.9607 57.6331 57 57.8701 57 58.135Z" fill="#B910A3"/>
</svg>
